<svg display="none" width="0" height="0" version="1.1" xmlns="http://www.w3.org/2000/svg" xmlns:xlink="http://www.w3.org/1999/xlink">
<defs>
<symbol id="icon-info" viewBox="0 0 1024 1024">
	<title>info</title>
	<path class="path1" d="M512 854q140 0 241-101t101-241-101-241-241-101-241 101-101 241 101 241 241 101zM512 86q176 0 301 125t125 301-125 301-301 125-301-125-125-301 125-301 301-125zM470 298h84v256h-84v-256zM470 640h84v86h-84v-86z"></path>
</symbol>
<symbol id="icon-location" viewBox="0 0 1024 1024">
	<title>location</title>
	<path class="path1" d="M512 490q44 0 75-31t31-75-31-75-75-31-75 31-31 75 31 75 75 31zM512 86q124 0 211 87t87 211q0 62-31 142t-75 150-87 131-73 97l-32 34q-12-14-32-37t-72-92-91-134-71-147-32-144q0-124 87-211t211-87z"></path>
</symbol>
<symbol id="icon-comment" viewBox="0 0 1024 1024">
	<title>comment</title>
	<path class="path1" d="M854 682v-512h-684v598l86-86h598zM854 86q34 0 59 25t25 59v512q0 34-25 60t-59 26h-598l-170 170v-768q0-34 25-59t59-25h684z"></path>
</symbol>
<symbol id="icon-image" viewBox="0 0 1024 1024">
	<title>image</title>
	<path class="path1" d="M362 576l-148 192h596l-192-256-148 192zM896 810q0 34-26 60t-60 26h-596q-34 0-60-26t-26-60v-596q0-34 26-60t60-26h596q34 0 60 26t26 60v596z"></path>
</symbol>
<symbol id="icon-book" viewBox="0 0 1024 1024">
	<title>book</title>
	<path class="path1" d="M256 170v342l106-64 108 64v-342h-214zM768 86q34 0 60 25t26 59v684q0 34-26 59t-60 25h-512q-34 0-60-25t-26-59v-684q0-34 26-59t60-25h512z"></path>
</symbol>
</defs>
</svg>
